<svg width="10" height="9" viewBox="0 0 10 9" fill="none" xmlns="http://www.w3.org/2000/svg">
<path d="M9.57329 4.6631C9.56998 4.30545 9.42587 3.9635 9.1722 3.71136L6.2558 0.788169C6.12843 0.661554 5.95613 0.590485 5.77653 0.590485C5.59694 0.590485 5.42464 0.661554 5.29727 0.788169C5.23355 0.851367 5.18297 0.926554 5.14846 1.0094C5.11395 1.09224 5.09618 1.18109 5.09618 1.27084C5.09618 1.36058 5.11395 1.44943 5.14846 1.53228C5.18297 1.61512 5.23355 1.6903 5.29727 1.7535L7.53385 3.98329H0.735721C0.555423 3.98329 0.382511 4.05491 0.255021 4.1824C0.127531 4.30989 0.0559082 4.4828 0.0559082 4.6631C0.0559082 4.8434 0.127531 5.01631 0.255021 5.1438C0.382511 5.27129 0.555423 5.34291 0.735721 5.34291H7.53385L5.29727 7.57949C5.16925 7.7066 5.09698 7.87936 5.09634 8.05975C5.09571 8.24015 5.16676 8.41341 5.29387 8.54143C5.42098 8.66944 5.59373 8.74171 5.77413 8.74235C5.95453 8.74299 6.12779 8.67193 6.2558 8.54482L9.1722 5.62163C9.42753 5.36782 9.57177 5.02311 9.57329 4.6631V4.6631Z" fill="#202727"/>
</svg>
